<svg id="svg" xmlns="http://www.w3.org/2000/svg" xmlns:xlink="http://www.w3.org/1999/xlink" width="400" height="400" viewBox="0, 0, 400,400"><g id="svgg"><path id="path0" d="M70.641 146.641 C 68.023 149.259,71.265 153.540,74.568 151.826 C 77.656 150.224,76.495 145.667,73.000 145.667 C 71.914 145.667,71.405 145.877,70.641 146.641 M90.122 149.390 C 89.198 149.837,88.557 151.058,88.593 152.303 C 88.683 155.467,92.428 156.735,94.480 154.296 C 96.849 151.480,93.527 147.741,90.122 149.390 M53.463 151.327 C 52.359 151.772,51.333 153.311,51.333 154.519 C 51.333 157.462,54.991 158.817,57.033 156.631 C 59.489 154.002,56.785 149.984,53.463 151.327 M105.370 160.799 C 102.414 162.437,103.624 167.152,107.000 167.152 C 108.160 167.152,108.568 166.965,109.367 166.070 C 111.884 163.254,108.646 158.983,105.370 160.799 M39.652 164.698 C 37.382 165.533,37.160 169.504,39.319 170.659 C 41.563 171.860,44.333 170.207,44.333 167.667 C 44.333 165.137,42.177 163.769,39.652 164.698 M33.921 182.522 C 31.196 184.000,31.732 188.189,34.731 188.847 C 38.506 189.677,40.273 183.640,36.627 182.369 C 35.286 181.902,35.037 181.916,33.921 182.522 M37.390 200.857 C 36.673 201.158,36.138 201.719,35.804 202.518 C 34.396 205.888,38.331 208.815,41.028 206.405 C 43.871 203.865,40.924 199.371,37.390 200.857 M102.438 212.475 C 99.521 213.779,99.936 218.064,103.055 218.838 C 104.368 219.163,106.171 218.182,106.837 216.779 C 108.168 213.974,105.319 211.187,102.438 212.475 M48.308 216.308 C 45.270 219.345,49.825 223.966,52.965 221.033 C 54.654 219.455,54.344 216.873,52.340 215.837 C 50.792 215.036,49.419 215.197,48.308 216.308 M86.035 222.199 C 84.600 222.803,83.872 224.081,84.114 225.572 C 84.572 228.397,87.636 229.445,89.688 227.480 C 92.351 224.928,89.466 220.757,86.035 222.199 M66.833 223.315 C 65.598 223.821,64.848 224.984,64.848 226.394 C 64.848 229.826,69.994 230.899,71.303 227.739 C 72.447 224.978,69.617 222.176,66.833 223.315 " stroke="none" fill="#04d4d4" fill-rule="evenodd"></path><path id="path1" d="M72.058 156.771 C 70.569 158.357,71.591 160.667,73.782 160.667 C 75.162 160.667,76.000 159.806,76.000 158.390 C 76.000 156.227,73.525 155.210,72.058 156.771 M86.684 159.919 C 85.769 160.660,85.675 162.422,86.501 163.334 C 87.297 164.214,89.120 164.214,90.000 163.333 C 92.008 161.326,88.899 158.125,86.684 159.919 M59.667 161.667 C 58.733 162.601,58.772 164.469,59.741 165.148 C 62.155 166.839,65.025 163.725,62.895 161.725 C 61.931 160.819,60.539 160.794,59.667 161.667 M97.667 168.667 C 97.296 169.037,97.000 169.778,97.000 170.333 C 97.000 172.417,99.575 173.453,100.987 171.937 C 102.995 169.782,99.749 166.584,97.667 168.667 M50.089 171.322 C 49.106 172.237,48.885 173.169,49.396 174.233 C 50.306 176.127,53.295 175.860,53.802 173.839 C 54.379 171.540,51.760 169.765,50.089 171.322 M44.852 184.074 C 43.191 186.447,46.305 189.362,48.333 187.333 C 49.840 185.827,48.801 183.333,46.667 183.333 C 45.706 183.333,45.237 183.525,44.852 184.074 M49.000 197.236 C 47.134 197.923,46.720 200.136,48.236 201.328 C 50.563 203.159,53.283 199.919,51.182 197.818 C 50.365 197.002,49.944 196.889,49.000 197.236 M95.333 206.667 C 93.914 208.086,94.951 210.667,96.942 210.667 C 98.854 210.667,99.952 208.365,98.814 206.741 C 98.136 205.772,96.267 205.733,95.333 206.667 M56.879 208.835 C 55.136 210.578,56.789 213.460,59.187 212.858 C 60.906 212.427,61.447 210.162,60.142 208.857 C 59.477 208.191,57.536 208.179,56.879 208.835 M82.885 213.276 C 81.651 214.640,82.405 216.841,84.228 217.199 C 86.335 217.613,87.844 214.844,86.333 213.333 C 85.482 212.482,83.631 212.452,82.885 213.276 M69.013 214.063 C 67.552 215.631,68.617 218.000,70.782 218.000 C 72.205 218.000,73.000 217.131,73.000 215.576 C 73.000 213.493,70.447 212.524,69.013 214.063 " stroke="none" fill="#046cdc" fill-rule="evenodd"></path><path id="path2" d="M119.554 174.917 C 119.377 175.208,110.667 203.201,110.667 203.479 C 110.667 203.582,111.780 203.667,113.141 203.667 L 115.615 203.667 115.954 202.583 C 116.140 201.987,116.608 200.412,116.994 199.083 L 117.695 196.667 122.333 196.667 L 126.972 196.667 127.673 199.083 C 128.059 200.412,128.527 201.987,128.713 202.583 L 129.052 203.667 131.550 203.667 C 133.546 203.667,134.027 203.571,133.941 203.189 C 133.882 202.927,131.883 196.404,129.500 188.694 L 125.167 174.676 122.436 174.671 C 120.935 174.669,119.638 174.779,119.554 174.917 M202.333 178.833 L 202.333 183.000 200.000 183.000 L 197.667 183.000 197.667 185.000 L 197.667 187.000 200.000 187.000 L 202.333 187.000 202.335 192.417 C 202.337 198.668,202.588 199.874,204.272 201.742 C 208.618 206.562,217.161 204.574,218.482 198.436 C 218.701 197.420,218.653 197.356,217.439 197.037 C 214.261 196.204,214.417 196.192,214.178 197.281 C 213.688 199.513,211.277 200.736,209.134 199.841 C 207.326 199.086,207.000 197.888,207.000 192.011 L 207.000 187.000 211.333 187.000 L 215.667 187.000 215.667 185.000 L 215.667 183.000 211.333 183.000 L 207.000 183.000 207.000 178.833 L 207.000 174.667 204.667 174.667 L 202.333 174.667 202.333 178.833 M227.333 189.167 L 227.333 203.667 229.625 203.667 L 231.917 203.667 232.064 197.750 C 232.284 188.904,233.635 186.641,238.500 186.966 C 240.812 187.121,241.000 187.813,241.000 196.185 L 241.000 203.667 243.526 203.667 L 246.052 203.667 245.943 195.583 C 245.824 186.798,245.664 186.011,243.616 184.106 C 240.529 181.234,234.597 182.514,232.524 186.500 C 232.036 187.438,232.004 187.103,232.002 181.083 L 232.000 174.667 229.667 174.667 L 227.333 174.667 227.333 189.167 M312.667 189.167 L 312.667 203.667 315.000 203.667 L 317.333 203.667 317.333 200.602 C 317.333 197.729,317.390 197.478,318.229 196.602 C 319.426 195.353,319.126 195.153,322.820 199.667 L 326.092 203.667 329.271 203.667 L 332.450 203.667 331.771 202.917 C 331.397 202.504,329.183 200.007,326.850 197.367 L 322.609 192.567 327.316 187.851 C 332.642 182.515,332.624 182.591,328.524 182.850 L 325.500 183.040 321.422 187.270 L 317.344 191.500 317.339 183.083 L 317.333 174.667 315.000 174.667 L 312.667 174.667 312.667 189.167 M123.978 186.751 C 124.791 189.546,125.519 192.021,125.597 192.250 C 125.704 192.565,124.912 192.667,122.345 192.667 C 119.664 192.667,118.974 192.572,119.059 192.216 C 119.505 190.353,122.201 181.669,122.333 181.669 C 122.425 181.669,123.165 183.956,123.978 186.751 M149.048 183.023 C 148.617 183.196,147.829 183.647,147.298 184.025 L 146.333 184.712 146.333 183.856 C 146.333 183.018,146.283 183.000,144.000 183.000 L 141.667 183.000 141.667 197.500 L 141.667 212.000 144.000 212.000 L 146.333 212.000 146.333 207.164 L 146.333 202.328 148.110 203.330 C 155.787 207.663,163.632 199.019,160.720 189.435 C 159.157 184.289,153.562 181.215,149.048 183.023 M175.198 183.196 C 170.618 184.655,167.575 190.555,168.669 195.854 C 171.327 208.733,190.156 206.670,190.156 193.500 C 190.156 185.503,183.137 180.668,175.198 183.196 M261.667 182.978 C 252.570 185.755,251.344 198.479,259.735 203.029 C 263.724 205.192,270.691 204.536,273.948 201.691 L 274.730 201.009 273.519 199.359 L 272.308 197.710 270.725 198.694 C 266.077 201.583,260.519 200.165,259.182 195.750 L 258.955 195.000 267.683 195.000 L 276.410 195.000 276.171 193.089 C 275.228 185.536,268.546 180.878,261.667 182.978 M290.333 182.978 C 281.237 185.755,280.011 198.479,288.401 203.029 C 292.390 205.192,299.358 204.536,302.615 201.691 L 303.396 201.009 302.186 199.359 L 300.975 197.710 299.391 198.694 C 294.744 201.583,289.186 200.165,287.849 195.750 L 287.622 195.000 296.349 195.000 L 305.077 195.000 304.838 193.089 C 303.894 185.536,297.212 180.878,290.333 182.978 M348.333 186.833 L 348.333 191.000 344.333 191.000 L 340.333 191.000 340.333 193.000 L 340.333 195.000 344.333 195.000 L 348.333 195.000 348.333 199.167 L 348.333 203.333 350.667 203.333 L 353.000 203.333 353.000 199.167 L 353.000 195.000 357.000 195.000 L 361.000 195.000 361.000 193.000 L 361.000 191.000 357.000 191.000 L 353.000 191.000 353.000 186.833 L 353.000 182.667 350.667 182.667 L 348.333 182.667 348.333 186.833 M152.405 186.995 C 155.564 187.021,157.684 193.694,155.668 197.266 C 153.928 200.348,149.079 201.148,146.879 198.717 C 145.828 197.555,146.231 188.771,147.374 187.919 C 148.381 187.168,150.197 186.659,151.167 186.856 C 151.533 186.930,152.091 186.993,152.405 186.995 M180.833 187.040 C 187.911 189.000,186.580 200.103,179.267 200.109 C 171.347 200.117,171.252 187.368,179.167 186.699 C 179.350 186.683,180.100 186.837,180.833 187.040 M268.044 187.535 C 269.090 188.061,270.667 189.859,270.667 190.526 C 270.667 190.917,269.679 191.000,265.000 191.000 C 258.612 191.000,258.470 190.932,260.429 188.795 C 262.186 186.877,265.609 186.311,268.044 187.535 M296.710 187.535 C 297.757 188.061,299.333 189.859,299.333 190.526 C 299.333 190.917,298.346 191.000,293.667 191.000 C 287.279 191.000,287.137 190.932,289.095 188.795 C 290.853 186.877,294.276 186.311,296.710 187.535 " stroke="none" fill="#042c94" fill-rule="evenodd"></path><path id="path3" d="" stroke="none" fill="#04d8b8" fill-rule="evenodd"></path><path id="path4" d="" stroke="none" fill="#0440bc" fill-rule="evenodd"></path></g></svg>